<svg viewBox="0 0 24 24" fill="none" xmlns="http://www.w3.org/2000/svg"><path d="M18.2993 6.2467C17.1474 5.71816 15.9122 5.32876 14.6207 5.10573C14.5972 5.10143 14.5737 5.11219 14.5616 5.1337C14.4027 5.41625 14.2267 5.78486 14.1035 6.07458C12.7144 5.86662 11.3324 5.86662 9.9718 6.07458C9.84855 5.77842 9.66619 5.41625 9.50661 5.1337C9.4945 5.1129 9.471 5.10215 9.44748 5.10573C8.15668 5.32805 6.92145 5.71745 5.76884 6.2467C5.75887 6.251 5.75031 6.25818 5.74464 6.2675C3.40166 9.76786 2.75982 13.1822 3.07469 16.5542C3.07611 16.5707 3.08537 16.5864 3.09819 16.5965C4.64402 17.7317 6.14142 18.4209 7.61101 18.8777C7.63453 18.8849 7.65945 18.8763 7.67442 18.8569C8.02205 18.3822 8.33194 17.8816 8.59763 17.3552C8.61331 17.3244 8.59835 17.2878 8.5663 17.2756C8.07477 17.0891 7.60674 16.8618 7.15652 16.6036C7.12091 16.5829 7.11806 16.5319 7.15082 16.5075C7.24556 16.4365 7.34033 16.3627 7.4308 16.2881C7.44716 16.2745 7.46997 16.2716 7.48921 16.2802C10.4469 17.6306 13.649 17.6306 16.5718 16.2802C16.5911 16.2709 16.6139 16.2738 16.631 16.2874C16.7215 16.362 16.8162 16.4365 16.9116 16.5075C16.9444 16.5319 16.9423 16.5829 16.9067 16.6036C16.4564 16.8668 15.9884 17.0891 15.4962 17.2749C15.4641 17.2871 15.4499 17.3244 15.4655 17.3552C15.7369 17.8809 16.0468 18.3814 16.388 18.8562C16.4023 18.8763 16.4279 18.8849 16.4515 18.8777C17.9282 18.4209 19.4256 17.7317 20.9714 16.5965C20.9849 16.5864 20.9935 16.5714 20.9949 16.5549C21.3717 12.6565 20.3637 9.27017 18.3228 6.26821C18.3178 6.25818 18.3093 6.251 18.2993 6.2467ZM9.03932 14.501C8.14884 14.501 7.41512 13.6835 7.41512 12.6794C7.41512 11.6754 8.13461 10.8579 9.03932 10.8579C9.95113 10.8579 10.6778 11.6826 10.6635 12.6794C10.6635 13.6835 9.944 14.501 9.03932 14.501ZM15.0445 14.501C14.1541 14.501 13.4204 13.6835 13.4204 12.6794C13.4204 11.6754 14.1398 10.8579 15.0445 10.8579C15.9564 10.8579 16.683 11.6826 16.6687 12.6794C16.6687 13.6835 15.9564 14.501 15.0445 14.501Z" fill="#ffffff"/></svg>
